<svg width="13" height="15" viewBox="0 0 13 15" fill="none" xmlns="http://www.w3.org/2000/svg">
<path d="M3.92321 0.518262C4.07991 0.200625 4.40201 0 4.75313 0H8.24687C8.59799 0 8.92009 0.200625 9.07679 0.518262L9.28571 0.9375H12.0714C12.585 0.9375 13 1.35732 13 1.875C13 2.39268 12.585 2.8125 12.0714 2.8125H0.928571C0.415826 2.8125 0 2.39268 0 1.875C0 1.35732 0.415826 0.9375 0.928571 0.9375H3.71429L3.92321 0.518262ZM0.902455 3.75H12.0714V13.125C12.0714 14.1592 11.2386 15 10.2143 15H2.7596C1.75993 15 0.902455 14.1592 0.902455 13.125V3.75ZM3.22388 6.09375V12.6562C3.22388 12.9141 3.45893 13.125 3.68817 13.125C3.96964 13.125 4.15246 12.9141 4.15246 12.6562V6.09375C4.15246 5.83594 3.96964 5.625 3.68817 5.625C3.45893 5.625 3.22388 5.83594 3.22388 6.09375ZM6.0096 6.09375V12.6562C6.0096 12.9141 6.24464 13.125 6.47388 13.125C6.75536 13.125 6.96429 12.9141 6.96429 12.6562V6.09375C6.96429 5.83594 6.75536 5.625 6.47388 5.625C6.24464 5.625 6.0096 5.83594 6.0096 6.09375ZM8.82143 6.09375V12.6562C8.82143 12.9141 9.03036 13.125 9.28571 13.125C9.54107 13.125 9.75 12.9141 9.75 12.6562V6.09375C9.75 5.83594 9.54107 5.625 9.28571 5.625C9.03036 5.625 8.82143 5.83594 8.82143 6.09375Z" fill="#FF0000"/>
</svg>
