<svg width="15" height="15" viewBox="0 0 15 15" fill="none" xmlns="http://www.w3.org/2000/svg">
<path d="M14.3643 1.18359C15.0059 1.82431 15.0059 2.86318 14.3643 3.5039L13.4854 4.38574L10.6143 1.51523L11.4961 0.634565C12.1377 -0.0062604 13.1748 -0.0062604 13.8164 0.634565L14.3643 1.18359ZM5.05078 7.08105L9.95215 2.17792L12.8232 5.04785L7.91894 9.94921C7.74023 10.1309 7.52051 10.2656 7.27734 10.3476L4.67578 11.2148C4.39746 11.2969 4.14551 11.2324 3.95508 11.0185C3.76758 10.8545 3.70312 10.5762 3.78516 10.3242L4.65234 7.72265C4.73438 7.47949 4.86914 7.25976 5.05078 7.08105ZM5.625 1.84863C6.14355 1.84863 6.5625 2.29482 6.5625 2.78613C6.5625 3.33105 6.14355 3.72363 5.625 3.72363H2.8125C2.29482 3.72363 1.875 4.16894 1.875 4.66113V12.1875C1.875 12.706 2.29482 13.125 2.8125 13.125H10.3125C10.8311 13.125 11.25 12.706 11.25 12.1875V9.34863C11.25 8.85644 11.6689 8.41113 12.1875 8.41113C12.7061 8.41113 13.125 8.85644 13.125 9.34863V12.1875C13.125 13.7402 11.8652 15 10.3125 15H2.8125C1.25918 15 0 13.7402 0 12.1875V4.66113C0 3.10839 1.25918 1.84863 2.8125 1.84863H5.625Z" fill="#FFF505"/>
</svg>
