<svg width="250" height="120" viewBox="0 0 250 120" fill="none" xmlns="http://www.w3.org/2000/svg">
<g id="Logo">
<rect id="Rectangle 3" width="250" height="120" fill="#FAFAFA"/>
<g id="Group 1">
<path id="Vector" d="M136.665 53.745C136.665 53.745 131.986 58.6545 130.241 60.135C126.197 63.4859 121.121 63.7975 116.839 61.4597C109.384 57.4854 94.3953 39.0948 96.1401 27.4837C97.5675 18.1324 110.494 12.3657 111.525 18.6779C116.363 48.0564 136.665 53.745 136.665 53.745Z" fill="url(#paint0_linear_17_352)"/>
<path id="Vector_2" d="M108.036 53.7449C108.036 53.7449 111.525 57.7191 113.904 59.6673C118.821 63.5636 124.055 65.1221 130.32 61.3817C138.806 56.3943 155.619 30.9902 153.874 19.457C152.446 10.1058 139.44 4.33915 138.489 10.6513C134.682 34.2631 116.363 60.3687 108.036 53.7449Z" fill="url(#paint1_linear_17_352)"/>
<path id="Vector_3" d="M124.055 26.938C128.304 26.938 131.748 23.5537 131.748 19.3791C131.748 15.2044 128.304 11.8202 124.055 11.8202C119.807 11.8202 116.363 15.2044 116.363 19.3791C116.363 23.5537 119.807 26.938 124.055 26.938Z" fill="url(#paint2_linear_17_352)"/>
</g>
<g id="ivocab">
<path d="M103.02 69.3053C102.957 69.6626 102.778 69.9673 102.484 70.2195C102.19 70.4717 101.865 70.5978 101.508 70.5978C101.151 70.5978 100.867 70.4717 100.657 70.2195C100.447 69.9673 100.364 69.6626 100.405 69.3053C100.468 68.948 100.647 68.6433 100.941 68.3911C101.235 68.1389 101.56 68.0128 101.917 68.0128C102.274 68.0128 102.558 68.1389 102.768 68.3911C102.999 68.6433 103.083 68.948 103.02 69.3053ZM98.5787 79.8026C98.4318 80.328 98.3898 80.7798 98.4528 81.1581C98.5367 81.5364 98.7992 81.7466 99.2401 81.7886C99.4711 81.8306 99.7231 81.7886 99.9961 81.6625C100.269 81.5154 100.489 81.3578 100.657 81.1897C101.182 80.6643 101.697 79.9602 102.201 79.0776C102.705 78.1949 103.235 77.31 103.676 76.4274C103.874 76.0301 104.719 74.357 104.866 74.4411C105.013 74.5251 104.175 76.3981 104.028 76.7133C103.818 77.1546 103.555 77.7011 103.24 78.3525C102.925 79.004 102.547 79.645 102.106 80.2755C101.686 80.8849 101.224 81.4103 100.72 81.8516C100.217 82.272 99.6706 82.4821 99.0827 82.4821C98.4947 82.4821 98.0433 82.3455 97.7283 82.0723C97.4134 81.7991 97.2034 81.4629 97.0984 81.0636C96.9934 80.6432 96.9724 80.2019 97.0354 79.7396C97.0984 79.2562 97.2139 78.8044 97.3819 78.3841L99.3976 73.2457C99.5236 72.9515 99.5131 72.6783 99.3661 72.4261C99.2401 72.1739 99.1457 72.0058 99.0827 71.9218L100.815 71.8902C101.319 71.8902 101.592 71.9848 101.634 72.1739C101.697 72.3421 101.644 72.6153 101.476 72.9936L98.9567 78.8884C98.9147 79.0355 98.8622 79.1616 98.7992 79.2667C98.7572 79.3718 98.7152 79.4769 98.6732 79.582C98.6312 79.687 98.5997 79.7606 98.5787 79.8026Z" fill="#1BCFE7"/>
<path d="M112.243 71.8902C112.201 71.9323 112.18 71.9848 112.18 72.0478C112.054 72.4261 111.875 72.9725 111.644 73.6871C111.434 74.4016 111.161 75.1792 110.825 76.0198C110.489 76.8394 110.101 77.68 109.66 78.5417C109.24 79.3823 108.757 80.1389 108.211 80.8114C107.686 81.4629 107.109 81.9672 106.479 82.3245C105.849 82.6818 105.177 82.7868 104.463 82.6397C103.98 82.5557 103.655 82.3245 103.487 81.9462C103.34 81.5679 103.277 81.1161 103.298 80.5907C103.34 80.0653 103.445 79.4874 103.613 78.8569C103.802 78.2264 104.012 77.6065 104.243 76.997C104.075 77.2702 103.907 77.3858 103.739 77.3438C103.592 77.2807 103.571 77.1336 103.676 76.9025C103.781 76.7343 103.875 76.5662 103.959 76.3981C104.043 76.2089 104.138 76.0198 104.243 75.8307C104.39 75.5154 104.516 75.1477 104.621 74.7273C104.747 74.307 104.82 73.8972 104.841 73.4979C104.862 73.0986 104.831 72.7519 104.747 72.4577C104.684 72.1634 104.547 71.9848 104.337 71.9218C104.568 71.8797 104.789 71.8377 104.998 71.7957C105.166 71.7536 105.334 71.7326 105.502 71.7326C105.691 71.7116 105.817 71.6906 105.88 71.6696C106.111 71.6486 106.3 71.638 106.447 71.638C106.594 71.617 106.71 71.638 106.794 71.7011C106.899 71.7641 106.962 71.9007 106.983 72.1109C107.025 72.3 107.035 72.5837 107.014 72.962C106.993 73.4874 106.888 74.1284 106.699 74.885C106.51 75.6205 106.311 76.251 106.101 76.7764C105.912 77.3018 105.723 77.8271 105.534 78.3525C105.345 78.8779 105.198 79.3613 105.093 79.8026C105.009 80.2439 104.977 80.6327 104.998 80.969C105.019 81.2842 105.135 81.4839 105.345 81.5679C105.723 81.7361 106.111 81.715 106.51 81.5049C106.909 81.2737 107.298 80.9164 107.676 80.4331C108.054 79.9497 108.421 79.3613 108.778 78.6678C109.156 77.9743 109.502 77.2387 109.817 76.4611C109.586 75.9778 109.45 75.4419 109.408 74.8534C109.366 74.244 109.418 73.7291 109.565 73.3088C109.775 72.6153 110.059 72.0899 110.416 71.7326C110.794 71.3543 111.14 71.1232 111.455 71.0391C111.77 70.934 112.012 70.9655 112.18 71.1337C112.369 71.3018 112.39 71.554 112.243 71.8902Z" fill="#1BCFE7"/>
<path d="M123.775 76.5068C123.649 76.8011 123.236 77.3123 122.942 77.9427C122.669 78.5732 122.323 79.2037 121.903 79.8341C121.483 80.4646 120.99 81.0215 120.423 81.5049C119.877 81.9882 119.278 82.2299 118.627 82.2299C118.144 82.2299 117.735 82.1564 117.399 82.0093C117.084 81.8411 116.822 81.6415 116.612 81.4103C116.171 81.7466 115.719 82.0198 115.257 82.2299C114.795 82.4191 114.333 82.5031 113.871 82.4821C113.263 82.4611 112.78 82.2825 112.423 81.9462C112.087 81.61 111.856 81.1791 111.73 80.6538C111.625 80.1073 111.625 79.4979 111.73 78.8254C111.835 78.1319 112.034 77.4384 112.328 76.7448C112.643 76.0303 113.032 75.3473 113.494 74.6958C113.955 74.0443 114.449 73.4769 114.974 72.9936C115.52 72.5102 116.076 72.1319 116.643 71.8587C117.21 71.5645 117.766 71.4279 118.312 71.4489C118.9 71.4489 119.373 71.617 119.73 71.9533C120.087 72.2895 120.318 72.7309 120.423 73.2773C120.549 73.8237 120.559 74.4436 120.454 75.1371C120.349 75.8096 120.15 76.4927 119.856 77.1862C119.625 77.7326 119.278 78.3525 118.816 79.0461C118.354 79.7186 117.819 80.3385 117.21 80.9059C117.483 81.4313 117.976 81.694 118.69 81.694C119.194 81.694 119.667 81.4839 120.108 81.0636C120.57 80.6432 120.99 80.1389 121.368 79.5504C121.745 78.962 122.186 78.1753 122.584 77.5397C123.036 76.5863 124.186 75.0074 124.375 74.6291C124.459 74.4609 124.322 75.4109 124.49 75.474C124.658 75.537 123.88 76.2757 123.775 76.5068ZM118.974 72.4892C118.638 72.4051 118.27 72.4577 117.871 72.6468C117.473 72.8149 117.074 73.0986 116.675 73.4979C116.276 73.8762 115.887 74.3386 115.509 74.885C115.131 75.4104 114.795 75.9883 114.501 76.6187C114.186 77.2702 113.934 77.8902 113.746 78.4786C113.578 79.0461 113.473 79.5609 113.431 80.0233C113.389 80.4856 113.42 80.8744 113.525 81.1897C113.63 81.4839 113.829 81.673 114.123 81.7571C114.417 81.8411 114.753 81.8096 115.131 81.6625C115.509 81.5154 115.887 81.2842 116.265 80.969C116.097 80.7168 115.971 80.4541 115.887 80.1809C115.803 79.9077 115.761 79.6555 115.761 79.4243C115.782 79.0671 115.866 78.7518 116.013 78.4786C116.181 78.2054 116.465 78.0688 116.864 78.0688C117.137 78.0688 117.357 78.1634 117.525 78.3525C117.714 78.5417 117.808 78.7623 117.808 79.0145C117.808 79.0776 117.798 79.1406 117.777 79.2037C117.777 79.2457 117.766 79.2982 117.745 79.3613C118.102 78.8359 118.428 78.2685 118.722 77.659C119.037 77.0075 119.278 76.3876 119.446 75.7991C119.614 75.2107 119.709 74.6853 119.73 74.223C119.751 73.7606 119.698 73.3823 119.572 73.0881C119.446 72.7729 119.247 72.5732 118.974 72.4892Z" fill="#1BCFE7"/>
<path d="M132.232 76.7133C131.854 77.5329 131.476 78.3 131.099 79.0145C130.721 79.7291 130.29 80.3595 129.807 80.9059C129.345 81.4313 128.799 81.8516 128.169 82.1669C127.56 82.4611 126.826 82.6082 125.965 82.6082C125.146 82.6082 124.495 82.4611 124.012 82.1669C123.529 81.8727 123.183 81.4944 122.973 81.032C122.763 80.5487 122.668 80.0023 122.689 79.3928C122.731 78.7834 122.847 78.1529 123.036 77.5014C123.246 76.8499 123.508 76.2089 123.823 75.5785C124.159 74.948 124.516 74.3806 124.894 73.8762C125.482 73.0776 126.143 72.4682 126.878 72.0478C127.613 71.6065 128.358 71.3859 129.114 71.3859C129.912 71.3859 130.49 71.5855 130.847 71.9848C131.225 72.3841 131.372 72.9095 131.288 73.561C131.246 73.8132 131.141 74.0759 130.973 74.3491C130.826 74.6223 130.647 74.8534 130.437 75.0426C130.227 75.2317 130.007 75.3578 129.776 75.4209C129.545 75.4629 129.345 75.3998 129.177 75.2317C129.345 75.0216 129.524 74.7799 129.713 74.5067C129.923 74.2125 130.07 73.9182 130.154 73.624C130.301 73.0776 130.301 72.6888 130.154 72.4577C130.028 72.2055 129.818 72.0794 129.524 72.0794C129.23 72.0794 128.936 72.1634 128.642 72.3316C128.348 72.4997 128.043 72.7098 127.728 72.962C127.435 73.2142 127.151 73.5084 126.878 73.8447C126.605 74.1599 126.364 74.4752 126.154 74.7904C126.007 75.0005 125.828 75.2843 125.618 75.6415C125.429 75.9988 125.24 76.3981 125.051 76.8394C124.883 77.2597 124.736 77.7116 124.61 78.1949C124.484 78.6783 124.421 79.1511 124.421 79.6135C124.421 80.2439 124.558 80.8114 124.831 81.3157C125.125 81.7991 125.608 82.0408 126.28 82.0408C126.973 82.0408 127.581 81.8727 128.106 81.5364C128.652 81.1791 129.146 80.7378 129.587 80.2124C130.028 79.666 130.427 79.0671 130.784 78.4156C131.141 77.7641 131.476 77.1231 131.791 76.4927C131.938 76.1984 132.085 76.0828 132.232 76.1459C132.379 76.2089 132.379 76.3981 132.232 76.7133Z" fill="#1BCFE7"/>
<path d="M143.343 76.6818C143.112 77.1652 142.818 77.7326 142.461 78.3841C142.125 79.0355 141.747 79.666 141.327 80.2755C140.907 80.8849 140.456 81.4103 139.973 81.8516C139.511 82.272 139.049 82.5031 138.587 82.5452C138.335 82.5662 138.062 82.5241 137.768 82.4191C137.474 82.293 137.233 82.0828 137.044 81.7886C136.855 81.4734 136.739 81.053 136.697 80.5277C136.676 79.9813 136.781 79.2982 137.012 78.4786C136.76 78.8989 136.435 79.3928 136.036 79.9602C135.637 80.5066 135.207 81.0005 134.745 81.4418C134.136 82.0303 133.569 82.377 133.044 82.4821C132.54 82.5872 132.11 82.5136 131.753 82.2614C131.396 81.9882 131.133 81.5679 130.965 81.0005C130.818 80.4331 130.797 79.7711 130.902 79.0145C131.007 78.237 131.259 77.3963 131.658 76.4927C132.078 75.568 132.687 74.6328 133.485 73.6871C133.947 73.1196 134.503 72.6363 135.154 72.237C135.826 71.8377 136.498 71.554 137.17 71.3859C137.863 71.2177 138.524 71.1967 139.154 71.3228C139.805 71.4489 140.351 71.7536 140.792 72.237C141.023 72.4682 141.086 72.6888 140.981 72.899C140.897 73.1091 140.718 73.1932 140.445 73.1512C140.277 72.5627 139.931 72.2055 139.406 72.0794C138.902 71.9533 138.356 72.0478 137.768 72.3631C137.054 72.7624 136.319 73.3823 135.564 74.223C134.808 75.0426 134.146 75.9252 133.579 76.8709C133.516 76.976 133.422 77.1441 133.296 77.3753C133.17 77.6065 133.033 77.8797 132.886 78.1949C132.76 78.4891 132.634 78.8044 132.508 79.1406C132.403 79.4559 132.33 79.7606 132.288 80.0548C132.204 80.6012 132.236 81.0005 132.382 81.2527C132.55 81.5049 132.771 81.631 133.044 81.631C133.338 81.631 133.674 81.5154 134.052 81.2842C134.43 81.032 134.808 80.6853 135.186 80.2439C135.732 79.5714 136.225 78.8674 136.666 78.1319C137.128 77.3753 137.569 76.6082 137.989 75.8307C138.346 75.1582 138.661 74.6433 138.934 74.286C139.228 73.9287 139.627 73.7711 140.13 73.8132C140.34 73.8342 140.55 73.8762 140.76 73.9393C140.991 73.9813 141.222 73.9813 141.453 73.9393C141.285 74.1074 141.054 74.4226 140.76 74.885C140.487 75.3263 140.193 75.8412 139.879 76.4296C139.585 76.997 139.312 77.5855 139.06 78.1949C138.808 78.8044 138.629 79.3508 138.524 79.8341C138.272 81.0951 138.377 81.7255 138.839 81.7255C139.175 81.7466 139.543 81.5469 139.942 81.1266C140.34 80.7063 140.729 80.2019 141.107 79.6135C141.506 79.025 141.97 78.3342 142.367 77.6986C142.791 77.0198 144.239 74.539 144.407 74.2027C144.554 73.9295 143.73 76.0465 143.877 76.1096C144.024 76.1726 143.49 76.3666 143.343 76.6818Z" fill="#1BCFE7"/>
<path d="M149.661 64.5453C150.396 63.4945 151.1 62.9796 151.772 63.0006H151.929C152.139 63.0216 152.349 63.0637 152.559 63.1267C152.79 63.1687 153.021 63.1687 153.252 63.1267C152.958 63.4209 152.528 63.9463 151.961 64.7029C151.415 65.4384 150.806 66.3001 150.134 67.2878C149.483 68.2545 148.811 69.2948 148.118 70.4086C147.446 71.5225 146.848 72.6048 146.323 73.6555C145.924 74.4541 145.556 75.3053 145.221 76.2089C144.885 77.0916 144.643 77.9322 144.496 78.7308C144.37 79.5084 144.37 80.1809 144.496 80.7483C144.622 81.2947 144.958 81.6205 145.504 81.7255C146.197 81.8727 147.1 81.2737 148.213 79.9287C148.654 79.4033 149.084 78.7834 149.504 78.0688C149.945 77.3333 150.302 76.6503 150.575 76.0198C150.785 75.4944 150.932 74.99 151.016 74.5067C151.1 74.0233 151.1 73.5925 151.016 73.2142C150.953 72.8359 150.785 72.5522 150.512 72.3631C150.26 72.1529 149.882 72.0689 149.378 72.1109C149.147 72.1319 148.969 72.1004 148.843 72.0163C148.738 71.9323 148.696 71.8482 148.717 71.7641C148.738 71.6591 148.832 71.575 149 71.5119C149.189 71.4279 149.462 71.4174 149.819 71.4804C150.386 71.5645 150.858 71.7536 151.236 72.0478C151.614 72.3211 151.898 72.6678 152.087 73.0881C152.297 73.4874 152.412 73.9393 152.433 74.4436C152.475 74.927 152.444 75.4209 152.339 75.9252C152.192 76.5977 151.961 77.2702 151.646 77.9427C151.352 78.6152 150.984 79.2457 150.543 79.8341C150.102 80.4226 149.598 80.9375 149.032 81.3788C148.465 81.7991 147.856 82.0933 147.205 82.2614C146.302 82.5136 145.535 82.5977 144.906 82.5136C144.297 82.4296 143.814 82.2299 143.457 81.9147C143.121 81.5995 142.9 81.2002 142.795 80.7168C142.69 80.2124 142.711 79.6765 142.858 79.1091C142.984 78.6257 143.163 78.0898 143.394 77.5014C143.646 76.913 143.929 76.293 144.244 75.6415C143.887 76.335 143.194 76.8508 142.858 77.4603C142.522 78.0697 142.176 78.7038 141.882 79.2082C141.609 79.6916 141.268 80.1222 141.016 80.4794C140.785 80.8157 140.448 80.9795 140.301 81.1266C140.175 81.2317 140.444 81.0612 140.381 80.9561C140.297 80.8301 140.549 80.99 140.654 80.8429C141.011 80.3805 141.42 79.7501 141.882 78.9515C142.344 78.1319 142.827 77.2387 143.331 76.272C143.856 75.2843 144.391 74.244 144.937 73.1512C145.504 72.0584 146.06 70.9866 146.606 69.9358C147.152 68.885 147.677 67.8973 148.181 66.9726C148.706 66.0269 149.2 65.2178 149.661 64.5453Z" fill="#1BCFE7"/>
<path d="M103.02 69.3053C102.957 69.6626 102.778 69.9673 102.484 70.2195C102.19 70.4717 101.865 70.5978 101.508 70.5978C101.151 70.5978 100.867 70.4717 100.657 70.2195C100.447 69.9673 100.364 69.6626 100.405 69.3053C100.468 68.948 100.647 68.6433 100.941 68.3911C101.235 68.1389 101.56 68.0128 101.917 68.0128C102.274 68.0128 102.558 68.1389 102.768 68.3911C102.999 68.6433 103.083 68.948 103.02 69.3053ZM98.5787 79.8026C98.4318 80.328 98.3898 80.7798 98.4528 81.1581C98.5367 81.5364 98.7992 81.7466 99.2401 81.7886C99.4711 81.8306 99.7231 81.7886 99.9961 81.6625C100.269 81.5154 100.489 81.3578 100.657 81.1897C101.182 80.6643 101.697 79.9602 102.201 79.0776C102.705 78.1949 103.235 77.31 103.676 76.4274C103.874 76.0301 104.719 74.357 104.866 74.4411C105.013 74.5251 104.175 76.3981 104.028 76.7133C103.818 77.1546 103.555 77.7011 103.24 78.3525C102.925 79.004 102.547 79.645 102.106 80.2755C101.686 80.8849 101.224 81.4103 100.72 81.8516C100.217 82.272 99.6706 82.4821 99.0827 82.4821C98.4947 82.4821 98.0433 82.3455 97.7283 82.0723C97.4134 81.7991 97.2034 81.4629 97.0984 81.0636C96.9934 80.6432 96.9724 80.2019 97.0354 79.7396C97.0984 79.2562 97.2139 78.8044 97.3819 78.3841L99.3976 73.2457C99.5236 72.9515 99.5131 72.6783 99.3661 72.4261C99.2401 72.1739 99.1457 72.0058 99.0827 71.9218L100.815 71.8902C101.319 71.8902 101.592 71.9848 101.634 72.1739C101.697 72.3421 101.644 72.6153 101.476 72.9936L98.9567 78.8884C98.9147 79.0355 98.8622 79.1616 98.7992 79.2667C98.7572 79.3718 98.7152 79.4769 98.6732 79.582C98.6312 79.687 98.5997 79.7606 98.5787 79.8026Z" stroke="#1BCFE7"/>
<path d="M112.243 71.8902C112.201 71.9323 112.18 71.9848 112.18 72.0478C112.054 72.4261 111.875 72.9725 111.644 73.6871C111.434 74.4016 111.161 75.1792 110.825 76.0198C110.489 76.8394 110.101 77.68 109.66 78.5417C109.24 79.3823 108.757 80.1389 108.211 80.8114C107.686 81.4629 107.109 81.9672 106.479 82.3245C105.849 82.6818 105.177 82.7868 104.463 82.6397C103.98 82.5557 103.655 82.3245 103.487 81.9462C103.34 81.5679 103.277 81.1161 103.298 80.5907C103.34 80.0653 103.445 79.4874 103.613 78.8569C103.802 78.2264 104.012 77.6065 104.243 76.997C104.075 77.2702 103.907 77.3858 103.739 77.3438C103.592 77.2807 103.571 77.1336 103.676 76.9025C103.781 76.7343 103.875 76.5662 103.959 76.3981C104.043 76.2089 104.138 76.0198 104.243 75.8307C104.39 75.5154 104.516 75.1477 104.621 74.7273C104.747 74.307 104.82 73.8972 104.841 73.4979C104.862 73.0986 104.831 72.7519 104.747 72.4577C104.684 72.1634 104.547 71.9848 104.337 71.9218C104.568 71.8797 104.789 71.8377 104.998 71.7957C105.166 71.7536 105.334 71.7326 105.502 71.7326C105.691 71.7116 105.817 71.6906 105.88 71.6696C106.111 71.6486 106.3 71.638 106.447 71.638C106.594 71.617 106.71 71.638 106.794 71.7011C106.899 71.7641 106.962 71.9007 106.983 72.1109C107.025 72.3 107.035 72.5837 107.014 72.962C106.993 73.4874 106.888 74.1284 106.699 74.885C106.51 75.6205 106.311 76.251 106.101 76.7764C105.912 77.3018 105.723 77.8271 105.534 78.3525C105.345 78.8779 105.198 79.3613 105.093 79.8026C105.009 80.2439 104.977 80.6327 104.998 80.969C105.019 81.2842 105.135 81.4839 105.345 81.5679C105.723 81.7361 106.111 81.715 106.51 81.5049C106.909 81.2737 107.298 80.9164 107.676 80.4331C108.054 79.9497 108.421 79.3613 108.778 78.6678C109.156 77.9743 109.502 77.2387 109.817 76.4611C109.586 75.9778 109.45 75.4419 109.408 74.8534C109.366 74.244 109.418 73.7291 109.565 73.3088C109.775 72.6153 110.059 72.0899 110.416 71.7326C110.794 71.3543 111.14 71.1232 111.455 71.0391C111.77 70.934 112.012 70.9655 112.18 71.1337C112.369 71.3018 112.39 71.554 112.243 71.8902Z" stroke="#1BCFE7"/>
<path d="M123.775 76.5068C123.649 76.8011 123.236 77.3123 122.942 77.9427C122.669 78.5732 122.323 79.2037 121.903 79.8341C121.483 80.4646 120.99 81.0215 120.423 81.5049C119.877 81.9882 119.278 82.2299 118.627 82.2299C118.144 82.2299 117.735 82.1564 117.399 82.0093C117.084 81.8411 116.822 81.6415 116.612 81.4103C116.171 81.7466 115.719 82.0198 115.257 82.2299C114.795 82.4191 114.333 82.5031 113.871 82.4821C113.263 82.4611 112.78 82.2825 112.423 81.9462C112.087 81.61 111.856 81.1791 111.73 80.6538C111.625 80.1073 111.625 79.4979 111.73 78.8254C111.835 78.1319 112.034 77.4384 112.328 76.7448C112.643 76.0303 113.032 75.3473 113.494 74.6958C113.955 74.0443 114.449 73.4769 114.974 72.9936C115.52 72.5102 116.076 72.1319 116.643 71.8587C117.21 71.5645 117.766 71.4279 118.312 71.4489C118.9 71.4489 119.373 71.617 119.73 71.9533C120.087 72.2895 120.318 72.7309 120.423 73.2773C120.549 73.8237 120.559 74.4436 120.454 75.1371C120.349 75.8096 120.15 76.4927 119.856 77.1862C119.625 77.7326 119.278 78.3525 118.816 79.0461C118.354 79.7186 117.819 80.3385 117.21 80.9059C117.483 81.4313 117.976 81.694 118.69 81.694C119.194 81.694 119.667 81.4839 120.108 81.0636C120.57 80.6432 120.99 80.1389 121.368 79.5504C121.745 78.962 122.186 78.1753 122.584 77.5397C123.036 76.5863 124.186 75.0074 124.375 74.6291C124.459 74.4609 124.322 75.4109 124.49 75.474C124.658 75.537 123.88 76.2757 123.775 76.5068ZM118.974 72.4892C118.638 72.4051 118.27 72.4577 117.871 72.6468C117.473 72.8149 117.074 73.0986 116.675 73.4979C116.276 73.8762 115.887 74.3386 115.509 74.885C115.131 75.4104 114.795 75.9883 114.501 76.6187C114.186 77.2702 113.934 77.8902 113.746 78.4786C113.578 79.0461 113.473 79.5609 113.431 80.0233C113.389 80.4856 113.42 80.8744 113.525 81.1897C113.63 81.4839 113.829 81.673 114.123 81.7571C114.417 81.8411 114.753 81.8096 115.131 81.6625C115.509 81.5154 115.887 81.2842 116.265 80.969C116.097 80.7168 115.971 80.4541 115.887 80.1809C115.803 79.9077 115.761 79.6555 115.761 79.4243C115.782 79.0671 115.866 78.7518 116.013 78.4786C116.181 78.2054 116.465 78.0688 116.864 78.0688C117.137 78.0688 117.357 78.1634 117.525 78.3525C117.714 78.5417 117.808 78.7623 117.808 79.0145C117.808 79.0776 117.798 79.1406 117.777 79.2037C117.777 79.2457 117.766 79.2982 117.745 79.3613C118.102 78.8359 118.428 78.2685 118.722 77.659C119.037 77.0075 119.278 76.3876 119.446 75.7991C119.614 75.2107 119.709 74.6853 119.73 74.223C119.751 73.7606 119.698 73.3823 119.572 73.0881C119.446 72.7729 119.247 72.5732 118.974 72.4892Z" stroke="#1BCFE7"/>
<path d="M132.232 76.7133C131.854 77.5329 131.476 78.3 131.099 79.0145C130.721 79.7291 130.29 80.3595 129.807 80.9059C129.345 81.4313 128.799 81.8516 128.169 82.1669C127.56 82.4611 126.826 82.6082 125.965 82.6082C125.146 82.6082 124.495 82.4611 124.012 82.1669C123.529 81.8727 123.183 81.4944 122.973 81.032C122.763 80.5487 122.668 80.0023 122.689 79.3928C122.731 78.7834 122.847 78.1529 123.036 77.5014C123.246 76.8499 123.508 76.2089 123.823 75.5785C124.159 74.948 124.516 74.3806 124.894 73.8762C125.482 73.0776 126.143 72.4682 126.878 72.0478C127.613 71.6065 128.358 71.3859 129.114 71.3859C129.912 71.3859 130.49 71.5855 130.847 71.9848C131.225 72.3841 131.372 72.9095 131.288 73.561C131.246 73.8132 131.141 74.0759 130.973 74.3491C130.826 74.6223 130.647 74.8534 130.437 75.0426C130.227 75.2317 130.007 75.3578 129.776 75.4209C129.545 75.4629 129.345 75.3998 129.177 75.2317C129.345 75.0216 129.524 74.7799 129.713 74.5067C129.923 74.2125 130.07 73.9182 130.154 73.624C130.301 73.0776 130.301 72.6888 130.154 72.4577C130.028 72.2055 129.818 72.0794 129.524 72.0794C129.23 72.0794 128.936 72.1634 128.642 72.3316C128.348 72.4997 128.043 72.7098 127.728 72.962C127.435 73.2142 127.151 73.5084 126.878 73.8447C126.605 74.1599 126.364 74.4752 126.154 74.7904C126.007 75.0005 125.828 75.2843 125.618 75.6415C125.429 75.9988 125.24 76.3981 125.051 76.8394C124.883 77.2597 124.736 77.7116 124.61 78.1949C124.484 78.6783 124.421 79.1511 124.421 79.6135C124.421 80.2439 124.558 80.8114 124.831 81.3157C125.125 81.7991 125.608 82.0408 126.28 82.0408C126.973 82.0408 127.581 81.8727 128.106 81.5364C128.652 81.1791 129.146 80.7378 129.587 80.2124C130.028 79.666 130.427 79.0671 130.784 78.4156C131.141 77.7641 131.476 77.1231 131.791 76.4927C131.938 76.1984 132.085 76.0828 132.232 76.1459C132.379 76.2089 132.379 76.3981 132.232 76.7133Z" stroke="#1BCFE7"/>
<path d="M143.343 76.6818C143.112 77.1652 142.818 77.7326 142.461 78.3841C142.125 79.0355 141.747 79.666 141.327 80.2755C140.907 80.8849 140.456 81.4103 139.973 81.8516C139.511 82.272 139.049 82.5031 138.587 82.5452C138.335 82.5662 138.062 82.5241 137.768 82.4191C137.474 82.293 137.233 82.0828 137.044 81.7886C136.855 81.4734 136.739 81.053 136.697 80.5277C136.676 79.9813 136.781 79.2982 137.012 78.4786C136.76 78.8989 136.435 79.3928 136.036 79.9602C135.637 80.5066 135.207 81.0005 134.745 81.4418C134.136 82.0303 133.569 82.377 133.044 82.4821C132.54 82.5872 132.11 82.5136 131.753 82.2614C131.396 81.9882 131.133 81.5679 130.965 81.0005C130.818 80.4331 130.797 79.7711 130.902 79.0145C131.007 78.237 131.259 77.3963 131.658 76.4927C132.078 75.568 132.687 74.6328 133.485 73.6871C133.947 73.1196 134.503 72.6363 135.154 72.237C135.826 71.8377 136.498 71.554 137.17 71.3859C137.863 71.2177 138.524 71.1967 139.154 71.3228C139.805 71.4489 140.351 71.7536 140.792 72.237C141.023 72.4682 141.086 72.6888 140.981 72.899C140.897 73.1091 140.718 73.1932 140.445 73.1512C140.277 72.5627 139.931 72.2055 139.406 72.0794C138.902 71.9533 138.356 72.0478 137.768 72.3631C137.054 72.7624 136.319 73.3823 135.564 74.223C134.808 75.0426 134.146 75.9252 133.579 76.8709C133.516 76.976 133.422 77.1441 133.296 77.3753C133.17 77.6065 133.033 77.8797 132.886 78.1949C132.76 78.4891 132.634 78.8044 132.508 79.1406C132.403 79.4559 132.33 79.7606 132.288 80.0548C132.204 80.6012 132.236 81.0005 132.382 81.2527C132.55 81.5049 132.771 81.631 133.044 81.631C133.338 81.631 133.674 81.5154 134.052 81.2842C134.43 81.032 134.808 80.6853 135.186 80.2439C135.732 79.5714 136.225 78.8674 136.666 78.1319C137.128 77.3753 137.569 76.6082 137.989 75.8307C138.346 75.1582 138.661 74.6433 138.934 74.286C139.228 73.9287 139.627 73.7711 140.13 73.8132C140.34 73.8342 140.55 73.8762 140.76 73.9393C140.991 73.9813 141.222 73.9813 141.453 73.9393C141.285 74.1074 141.054 74.4226 140.76 74.885C140.487 75.3263 140.193 75.8412 139.879 76.4296C139.585 76.997 139.312 77.5855 139.06 78.1949C138.808 78.8044 138.629 79.3508 138.524 79.8341C138.272 81.0951 138.377 81.7255 138.839 81.7255C139.175 81.7466 139.543 81.5469 139.942 81.1266C140.34 80.7063 140.729 80.2019 141.107 79.6135C141.506 79.025 141.97 78.3342 142.367 77.6986C142.791 77.0198 144.239 74.539 144.407 74.2027C144.554 73.9295 143.73 76.0465 143.877 76.1096C144.024 76.1726 143.49 76.3666 143.343 76.6818Z" stroke="#1BCFE7"/>
<path d="M149.661 64.5453C150.396 63.4945 151.1 62.9796 151.772 63.0006H151.929C152.139 63.0216 152.349 63.0637 152.559 63.1267C152.79 63.1687 153.021 63.1687 153.252 63.1267C152.958 63.4209 152.528 63.9463 151.961 64.7029C151.415 65.4384 150.806 66.3001 150.134 67.2878C149.483 68.2545 148.811 69.2948 148.118 70.4086C147.446 71.5225 146.848 72.6048 146.323 73.6555C145.924 74.4541 145.556 75.3053 145.221 76.2089C144.885 77.0916 144.643 77.9322 144.496 78.7308C144.37 79.5084 144.37 80.1809 144.496 80.7483C144.622 81.2947 144.958 81.6205 145.504 81.7255C146.197 81.8727 147.1 81.2737 148.213 79.9287C148.654 79.4033 149.084 78.7834 149.504 78.0688C149.945 77.3333 150.302 76.6503 150.575 76.0198C150.785 75.4944 150.932 74.99 151.016 74.5067C151.1 74.0233 151.1 73.5925 151.016 73.2142C150.953 72.8359 150.785 72.5522 150.512 72.3631C150.26 72.1529 149.882 72.0689 149.378 72.1109C149.147 72.1319 148.969 72.1004 148.843 72.0163C148.738 71.9323 148.696 71.8482 148.717 71.7641C148.738 71.6591 148.832 71.575 149 71.5119C149.189 71.4279 149.462 71.4174 149.819 71.4804C150.386 71.5645 150.858 71.7536 151.236 72.0478C151.614 72.3211 151.898 72.6678 152.087 73.0881C152.297 73.4874 152.412 73.9393 152.433 74.4436C152.475 74.927 152.444 75.4209 152.339 75.9252C152.192 76.5977 151.961 77.2702 151.646 77.9427C151.352 78.6152 150.984 79.2457 150.543 79.8341C150.102 80.4226 149.598 80.9375 149.032 81.3788C148.465 81.7991 147.856 82.0933 147.205 82.2614C146.302 82.5136 145.535 82.5977 144.906 82.5136C144.297 82.4296 143.814 82.2299 143.457 81.9147C143.121 81.5995 142.9 81.2002 142.795 80.7168C142.69 80.2124 142.711 79.6765 142.858 79.1091C142.984 78.6257 143.163 78.0898 143.394 77.5014C143.646 76.913 143.929 76.293 144.244 75.6415C143.887 76.335 143.194 76.8508 142.858 77.4603C142.522 78.0697 142.176 78.7038 141.882 79.2082C141.609 79.6916 141.268 80.1222 141.016 80.4794C140.785 80.8157 140.448 80.9795 140.301 81.1266C140.175 81.2317 140.444 81.0612 140.381 80.9561C140.297 80.8301 140.549 80.99 140.654 80.8429C141.011 80.3805 141.42 79.7501 141.882 78.9515C142.344 78.1319 142.827 77.2387 143.331 76.272C143.856 75.2843 144.391 74.244 144.937 73.1512C145.504 72.0584 146.06 70.9866 146.606 69.9358C147.152 68.885 147.677 67.8973 148.181 66.9726C148.706 66.0269 149.2 65.2178 149.661 64.5453Z" stroke="#1BCFE7"/>
</g>
<path id="Improve your Vocabulary" d="M73.8391 105C73.8391 104.714 73.7349 104.551 73.5266 104.512C73.4615 104.499 73.3964 104.492 73.3312 104.492H72.2766V93.7891H73.8391V93.2812H68.8391V93.7891H70.4016V104.492H68.8391V105H73.8391ZM79.1367 104.512H78.3555V100.215C78.3815 99.082 78.7526 98.2487 79.4688 97.7148C79.7943 97.4674 80.1263 97.3438 80.4648 97.3438C81.0898 97.3438 81.5195 97.7018 81.7539 98.418C81.8451 98.7174 81.8906 99.0495 81.8906 99.4141V103.359C81.8906 103.945 81.7604 104.297 81.5 104.414C81.3177 104.479 81.0312 104.512 80.6406 104.512V105H84.8203C84.8203 104.714 84.7227 104.557 84.5273 104.531C84.4753 104.518 84.4102 104.512 84.332 104.512H83.5703V99.6289V99.4141C83.7786 98.4635 84.2214 97.819 84.8984 97.4805C85.1328 97.3633 85.3607 97.3047 85.582 97.3047C86.2331 97.3047 86.6888 97.6497 86.9492 98.3398C87.0664 98.6523 87.125 99.0104 87.125 99.4141V103.359C87.125 103.945 86.9883 104.297 86.7148 104.414C86.5326 104.479 86.2461 104.512 85.8555 104.512V105H90.1914C90.1914 104.714 90.0938 104.557 89.8984 104.531C89.8464 104.518 89.7812 104.512 89.7031 104.512H88.7852V99.6094C88.7852 98.2943 88.349 97.3633 87.4766 96.8164C87.0859 96.582 86.6628 96.4648 86.207 96.4648C85.1133 96.4648 84.2604 96.9987 83.6484 98.0664C83.5703 98.2096 83.4987 98.3594 83.4336 98.5156C83.1862 97.5391 82.6719 96.901 81.8906 96.6016C81.6562 96.5104 81.4154 96.4648 81.168 96.4648C80.1784 96.4648 79.3711 96.8945 78.7461 97.7539C78.5898 97.9883 78.4531 98.2357 78.3359 98.4961L78.2578 96.6797H75.2891V97.168H76.6953V103.359C76.6953 103.958 76.513 104.316 76.1484 104.434C75.9531 104.486 75.6667 104.512 75.2891 104.512V105H79.6055C79.6055 104.714 79.5143 104.557 79.332 104.531C79.2669 104.518 79.2018 104.512 79.1367 104.512ZM94.3953 108.223V104.199C95.0724 104.811 95.8862 105.143 96.8367 105.195C98.0216 105.195 99.0047 104.746 99.7859 103.848C100.515 103.001 100.88 101.927 100.88 100.625C100.88 99.1276 100.457 97.9948 99.6102 97.2266C99.0372 96.7188 98.3536 96.4648 97.5594 96.4648C96.3875 96.4648 95.4825 96.9141 94.8445 97.8125C94.6362 98.099 94.4734 98.4115 94.3562 98.75L94.2586 96.6797H91.3289V97.168H92.7156V107.07C92.7156 107.656 92.5464 108.008 92.2078 108.125C92.0125 108.19 91.7195 108.223 91.3289 108.223V108.711H96.1727C96.1727 108.424 96.075 108.268 95.8797 108.242C95.8276 108.229 95.7625 108.223 95.6844 108.223H94.3953ZM96.8562 97.2852C98.0151 97.2852 98.7117 98.0859 98.9461 99.6875C98.9982 100.052 99.0242 100.436 99.0242 100.84C99.0242 102.832 98.5099 104.062 97.4812 104.531C97.2208 104.648 96.9409 104.707 96.6414 104.707C95.6909 104.707 95.0268 104.18 94.6492 103.125C94.4669 102.591 94.3758 101.953 94.3758 101.211C94.3758 99.5312 94.7924 98.3659 95.6258 97.7148C96.0034 97.4284 96.4135 97.2852 96.8562 97.2852ZM106.88 104.512H105.474V100.215C105.565 99.0951 105.943 98.2552 106.607 97.6953C106.828 97.513 107.017 97.4219 107.173 97.4219C107.369 97.4219 107.558 97.5846 107.74 97.9102C107.948 98.2747 108.157 98.4896 108.365 98.5547C108.456 98.5807 108.547 98.5938 108.638 98.5938C109.068 98.5938 109.348 98.3919 109.478 97.9883C109.504 97.8841 109.517 97.7865 109.517 97.6953C109.517 97.0964 109.218 96.7318 108.619 96.6016C108.489 96.5755 108.352 96.5625 108.209 96.5625C107.401 96.5625 106.685 96.901 106.06 97.5781C105.8 97.8646 105.591 98.1901 105.435 98.5547L105.357 96.6797H102.408V97.168H103.795V103.359C103.795 103.958 103.619 104.316 103.267 104.434C103.085 104.486 102.798 104.512 102.408 104.512V105H107.369C107.369 104.714 107.271 104.557 107.076 104.531C107.024 104.518 106.959 104.512 106.88 104.512ZM112.412 100.82C112.426 98.2552 113.233 96.9661 114.834 96.9531C116.436 96.9792 117.243 98.2422 117.256 100.742C117.243 103.372 116.449 104.694 114.873 104.707C113.246 104.681 112.426 103.385 112.412 100.82ZM114.893 96.4648C113.578 96.4648 112.497 96.9141 111.651 97.8125C110.922 98.6068 110.557 99.5833 110.557 100.742C110.557 102.331 111.13 103.542 112.276 104.375C113.031 104.922 113.877 105.195 114.815 105.195C116.104 105.195 117.165 104.74 117.998 103.828C118.754 103.008 119.131 101.999 119.131 100.801C119.131 99.2122 118.545 98.0143 117.373 97.207C116.644 96.7122 115.817 96.4648 114.893 96.4648ZM124.058 97.168V96.6797H120.132V97.168H120.991L123.374 103.711C123.648 104.453 123.928 104.883 124.214 105C124.37 105.065 124.566 105.098 124.8 105.098H125.152L127.905 97.832C128.062 97.4544 128.244 97.2396 128.452 97.1875C128.517 97.1745 128.583 97.168 128.648 97.168C128.908 97.168 129.058 97.0964 129.097 96.9531C129.11 96.888 129.116 96.7969 129.116 96.6797H126.089V97.168H127.573L125.132 103.691L122.71 97.168H124.058ZM134.258 96.9531C135.143 96.9531 135.716 97.3568 135.977 98.1641C136.055 98.4115 136.094 98.6719 136.094 98.9453C136.094 99.5833 135.807 99.974 135.234 100.117C134.909 100.195 134.46 100.228 133.887 100.215L131.973 100.156C132.025 98.6198 132.493 97.6237 133.379 97.168C133.652 97.0247 133.945 96.9531 134.258 96.9531ZM137.715 103.105L137.227 102.93C136.81 103.841 136.146 104.395 135.234 104.59C135.026 104.629 134.824 104.648 134.629 104.648C133.249 104.648 132.402 103.776 132.09 102.031C132.025 101.628 131.986 101.185 131.973 100.703L134.219 100.742C135.885 100.768 136.947 100.599 137.402 100.234C137.702 99.974 137.852 99.6224 137.852 99.1797C137.852 98.2552 137.383 97.526 136.445 96.9922C135.794 96.6406 135.052 96.4648 134.219 96.4648C132.643 96.4648 131.484 97.0964 130.742 98.3594C130.326 99.0885 130.117 99.9284 130.117 100.879C130.117 102.546 130.723 103.77 131.934 104.551C132.624 104.98 133.405 105.195 134.277 105.195C135.736 105.195 136.797 104.668 137.461 103.613C137.552 103.444 137.637 103.275 137.715 103.105ZM144.795 108.105C144.586 108.105 144.423 107.943 144.306 107.617C144.15 107.214 144 106.966 143.857 106.875C143.74 106.797 143.603 106.758 143.447 106.758C143.017 106.758 142.763 106.94 142.685 107.305C142.672 107.37 142.666 107.428 142.666 107.48C142.666 107.962 142.952 108.32 143.525 108.555C143.811 108.672 144.111 108.73 144.423 108.73C145.452 108.73 146.344 108.105 147.099 106.855C147.399 106.361 147.692 105.762 147.978 105.059L150.869 97.832C150.999 97.4674 151.149 97.2591 151.318 97.207C151.396 97.194 151.487 97.1875 151.591 97.1875C151.865 97.1875 152.021 97.1159 152.06 96.9727C152.073 96.8945 152.08 96.7969 152.08 96.6797H149.111V97.1875H150.537L148.095 103.262L145.498 97.1875H146.787V96.6797H142.822V97.1875H143.74L147.314 105.078C146.611 106.758 145.947 107.734 145.322 108.008C145.14 108.073 144.964 108.105 144.795 108.105ZM154.955 100.82C154.968 98.2552 155.776 96.9661 157.377 96.9531C158.979 96.9792 159.786 98.2422 159.799 100.742C159.786 103.372 158.992 104.694 157.416 104.707C155.789 104.681 154.968 103.385 154.955 100.82ZM157.436 96.4648C156.121 96.4648 155.04 96.9141 154.194 97.8125C153.465 98.6068 153.1 99.5833 153.1 100.742C153.1 102.331 153.673 103.542 154.819 104.375C155.574 104.922 156.42 105.195 157.358 105.195C158.647 105.195 159.708 104.74 160.541 103.828C161.297 103.008 161.674 101.999 161.674 100.801C161.674 99.2122 161.088 98.0143 159.916 97.207C159.187 96.7122 158.36 96.4648 157.436 96.4648ZM172.695 104.512H171.777V96.6797H168.632V97.168H170.097V101.523C170.084 102.669 169.68 103.496 168.886 104.004C168.56 104.212 168.222 104.316 167.87 104.316C166.855 104.316 166.275 103.77 166.132 102.676C166.106 102.507 166.093 102.337 166.093 102.168V96.6797H162.988V97.168H164.413V101.875C164.426 104.076 165.357 105.182 167.206 105.195C168.196 105.195 169.003 104.792 169.628 103.984C169.836 103.711 170.006 103.411 170.136 103.086L170.273 105H173.163C173.163 104.727 173.079 104.57 172.909 104.531C172.844 104.518 172.773 104.512 172.695 104.512ZM178.93 104.512H177.523V100.215C177.615 99.0951 177.992 98.2552 178.656 97.6953C178.878 97.513 179.066 97.4219 179.223 97.4219C179.418 97.4219 179.607 97.5846 179.789 97.9102C179.997 98.2747 180.206 98.4896 180.414 98.5547C180.505 98.5807 180.596 98.5938 180.688 98.5938C181.117 98.5938 181.397 98.3919 181.527 97.9883C181.553 97.8841 181.566 97.7865 181.566 97.6953C181.566 97.0964 181.267 96.7318 180.668 96.6016C180.538 96.5755 180.401 96.5625 180.258 96.5625C179.451 96.5625 178.734 96.901 178.109 97.5781C177.849 97.8646 177.641 98.1901 177.484 98.5547L177.406 96.6797H174.457V97.168H175.844V103.359C175.844 103.958 175.668 104.316 175.316 104.434C175.134 104.486 174.848 104.512 174.457 104.512V105H179.418C179.418 104.714 179.32 104.557 179.125 104.531C179.073 104.518 179.008 104.512 178.93 104.512ZM83.5824 143.098L87.6059 131.789H88.5824V131.281H85.3012V131.789H86.8637L83.6605 140.832L80.1645 131.789H81.727V131.281H77.1371V131.789H78.2699L82.0199 141.613C82.3064 142.382 82.5408 142.831 82.723 142.961C82.8663 143.052 83.0616 143.098 83.309 143.098H83.5824ZM91.3801 138.82C91.3931 136.255 92.2004 134.966 93.802 134.953C95.4035 134.979 96.2108 136.242 96.2238 138.742C96.2108 141.372 95.4165 142.694 93.841 142.707C92.2134 142.681 91.3931 141.385 91.3801 138.82ZM93.8605 134.465C92.5454 134.465 91.4647 134.914 90.6184 135.812C89.8892 136.607 89.5246 137.583 89.5246 138.742C89.5246 140.331 90.0975 141.542 91.2434 142.375C91.9986 142.922 92.8449 143.195 93.7824 143.195C95.0715 143.195 96.1327 142.74 96.966 141.828C97.7212 141.008 98.0988 139.999 98.0988 138.801C98.0988 137.212 97.5129 136.014 96.341 135.207C95.6118 134.712 94.785 134.465 93.8605 134.465ZM99.7832 138.898C99.7832 140.552 100.389 141.763 101.6 142.531C102.303 142.974 103.11 143.195 104.021 143.195C105.389 143.195 106.417 142.727 107.107 141.789C107.277 141.568 107.413 141.333 107.518 141.086L107.01 140.93C106.554 141.88 105.812 142.44 104.783 142.609C104.614 142.635 104.445 142.648 104.275 142.648C103.312 142.648 102.589 142.154 102.107 141.164C101.795 140.513 101.639 139.719 101.639 138.781C101.639 136.763 102.179 135.539 103.26 135.109C103.52 135.005 103.794 134.953 104.08 134.953C104.757 134.953 105.167 135.233 105.311 135.793C105.337 135.884 105.363 136.04 105.389 136.262C105.467 136.809 105.617 137.147 105.838 137.277C105.968 137.355 106.131 137.401 106.326 137.414C106.821 137.427 107.127 137.225 107.244 136.809C107.27 136.717 107.283 136.633 107.283 136.555C107.283 135.917 106.88 135.383 106.072 134.953C105.447 134.628 104.757 134.465 104.002 134.465C102.361 134.465 101.17 135.096 100.428 136.359C99.998 137.102 99.7832 137.948 99.7832 138.898ZM115.432 143.195C116.37 143.195 116.93 142.727 117.112 141.789C117.138 141.594 117.158 141.385 117.171 141.164L116.663 141.145C116.572 142.082 116.324 142.557 115.921 142.57C115.595 142.544 115.426 142.212 115.413 141.574V137.453C115.387 135.474 114.313 134.478 112.19 134.465C110.68 134.465 109.677 134.81 109.182 135.5C109.026 135.721 108.948 135.943 108.948 136.164C108.948 136.581 109.143 136.835 109.534 136.926C109.625 136.939 109.71 136.945 109.788 136.945C110.139 136.945 110.393 136.737 110.55 136.32C110.732 135.812 110.843 135.526 110.882 135.461C111.129 135.122 111.5 134.953 111.995 134.953C113.154 134.979 113.74 135.656 113.753 136.984V138.215C110.511 138.228 108.753 138.977 108.479 140.461C108.453 140.604 108.44 140.76 108.44 140.93C108.44 141.958 108.889 142.648 109.788 143C110.126 143.13 110.491 143.195 110.882 143.195C111.832 143.195 112.62 142.87 113.245 142.219C113.479 141.971 113.655 141.704 113.772 141.418C113.942 142.59 114.495 143.182 115.432 143.195ZM111.604 142.395C110.784 142.395 110.315 141.939 110.198 141.027C110.185 140.897 110.179 140.76 110.179 140.617C110.179 139.745 110.66 139.191 111.624 138.957C112.132 138.84 112.841 138.775 113.753 138.762V140.383C113.531 141.281 113.063 141.9 112.346 142.238C112.086 142.342 111.839 142.395 111.604 142.395ZM123.504 143.195C124.662 143.195 125.632 142.759 126.414 141.887C127.143 141.053 127.507 139.992 127.507 138.703C127.507 137.219 127.091 136.079 126.257 135.285C125.671 134.738 124.968 134.465 124.148 134.465C122.716 134.465 121.694 135.135 121.082 136.477C121.056 136.542 121.03 136.6 121.004 136.652V130.305H117.937V130.793H119.324V141.359C119.324 141.945 119.155 142.297 118.816 142.414C118.621 142.479 118.328 142.512 117.937 142.512V143H120.496L120.671 141.691C121.309 142.681 122.254 143.182 123.504 143.195ZM123.464 135.285C124.519 135.285 125.196 135.969 125.496 137.336C125.587 137.792 125.632 138.299 125.632 138.859C125.632 140.734 125.151 141.939 124.187 142.473C123.901 142.629 123.588 142.707 123.25 142.707C122.325 142.707 121.668 142.193 121.277 141.164C121.082 140.617 120.984 139.973 120.984 139.23C120.984 137.616 121.375 136.464 122.156 135.773C122.546 135.448 122.983 135.285 123.464 135.285ZM138.508 142.512H137.59V134.68H134.446V135.168H135.911V139.523C135.898 140.669 135.494 141.496 134.7 142.004C134.374 142.212 134.036 142.316 133.684 142.316C132.668 142.316 132.089 141.77 131.946 140.676C131.92 140.507 131.907 140.337 131.907 140.168V134.68H128.801V135.168H130.227V139.875C130.24 142.076 131.171 143.182 133.02 143.195C134.01 143.195 134.817 142.792 135.442 141.984C135.65 141.711 135.819 141.411 135.95 141.086L136.086 143H138.977C138.977 142.727 138.892 142.57 138.723 142.531C138.658 142.518 138.586 142.512 138.508 142.512ZM144.45 142.512H143.396V130.305H140.251V130.793H141.736V141.359C141.736 141.945 141.56 142.297 141.208 142.414C141 142.479 140.681 142.512 140.251 142.512V143H144.919C144.919 142.714 144.828 142.557 144.646 142.531C144.581 142.518 144.515 142.512 144.45 142.512ZM153.244 143.195C154.182 143.195 154.742 142.727 154.924 141.789C154.95 141.594 154.969 141.385 154.982 141.164L154.475 141.145C154.383 142.082 154.136 142.557 153.732 142.57C153.407 142.544 153.238 142.212 153.225 141.574V137.453C153.199 135.474 152.124 134.478 150.002 134.465C148.492 134.465 147.489 134.81 146.994 135.5C146.838 135.721 146.76 135.943 146.76 136.164C146.76 136.581 146.955 136.835 147.346 136.926C147.437 136.939 147.521 136.945 147.6 136.945C147.951 136.945 148.205 136.737 148.361 136.32C148.544 135.812 148.654 135.526 148.693 135.461C148.941 135.122 149.312 134.953 149.807 134.953C150.965 134.979 151.551 135.656 151.564 136.984V138.215C148.322 138.228 146.564 138.977 146.291 140.461C146.265 140.604 146.252 140.76 146.252 140.93C146.252 141.958 146.701 142.648 147.6 143C147.938 143.13 148.303 143.195 148.693 143.195C149.644 143.195 150.432 142.87 151.057 142.219C151.291 141.971 151.467 141.704 151.584 141.418C151.753 142.59 152.307 143.182 153.244 143.195ZM149.416 142.395C148.596 142.395 148.127 141.939 148.01 141.027C147.997 140.897 147.99 140.76 147.99 140.617C147.99 139.745 148.472 139.191 149.436 138.957C149.943 138.84 150.653 138.775 151.564 138.762V140.383C151.343 141.281 150.874 141.9 150.158 142.238C149.898 142.342 149.65 142.395 149.416 142.395ZM160.339 142.512H158.932V138.215C159.024 137.095 159.401 136.255 160.065 135.695C160.287 135.513 160.475 135.422 160.632 135.422C160.827 135.422 161.016 135.585 161.198 135.91C161.406 136.275 161.615 136.49 161.823 136.555C161.914 136.581 162.005 136.594 162.096 136.594C162.526 136.594 162.806 136.392 162.936 135.988C162.962 135.884 162.975 135.786 162.975 135.695C162.975 135.096 162.676 134.732 162.077 134.602C161.947 134.576 161.81 134.562 161.667 134.562C160.86 134.562 160.143 134.901 159.518 135.578C159.258 135.865 159.05 136.19 158.893 136.555L158.815 134.68H155.866V135.168H157.253V141.359C157.253 141.958 157.077 142.316 156.725 142.434C156.543 142.486 156.257 142.512 155.866 142.512V143H160.827C160.827 142.714 160.729 142.557 160.534 142.531C160.482 142.518 160.417 142.512 160.339 142.512ZM165.382 146.105C165.174 146.105 165.011 145.943 164.894 145.617C164.738 145.214 164.588 144.966 164.445 144.875C164.328 144.797 164.191 144.758 164.035 144.758C163.605 144.758 163.351 144.94 163.273 145.305C163.26 145.37 163.254 145.428 163.254 145.48C163.254 145.962 163.54 146.32 164.113 146.555C164.399 146.672 164.699 146.73 165.011 146.73C166.04 146.73 166.932 146.105 167.687 144.855C167.987 144.361 168.28 143.762 168.566 143.059L171.457 135.832C171.587 135.467 171.737 135.259 171.906 135.207C171.984 135.194 172.075 135.188 172.179 135.188C172.453 135.188 172.609 135.116 172.648 134.973C172.661 134.895 172.668 134.797 172.668 134.68H169.699V135.188H171.125L168.683 141.262L166.086 135.188H167.375V134.68H163.41V135.188H164.328L167.902 143.078C167.199 144.758 166.535 145.734 165.91 146.008C165.727 146.073 165.552 146.105 165.382 146.105Z" fill="#141272"/>
</g>
<defs>
<linearGradient id="paint0_linear_17_352" x1="98.3835" y1="15.9309" x2="118.457" y2="51.1597" gradientUnits="userSpaceOnUse">
<stop stop-color="#0062FE"/>
<stop offset="1" stop-color="#458DFF"/>
</linearGradient>
<linearGradient id="paint1_linear_17_352" x1="153.183" y1="9.8404" x2="115.967" y2="66.6521" gradientUnits="userSpaceOnUse">
<stop stop-color="#08C1DA"/>
<stop offset="0.578125" stop-color="#10C8E0"/>
<stop offset="1" stop-color="#49E9FE"/>
</linearGradient>
<linearGradient id="paint2_linear_17_352" x1="118.246" y1="11.9654" x2="130.138" y2="27.0549" gradientUnits="userSpaceOnUse">
<stop stop-color="#FFA800"/>
<stop offset="0.984375" stop-color="#FEE822"/>
</linearGradient>
</defs>
</svg>
